<?xml version="1.0" standalone="no"?>
<!DOCTYPE svg PUBLIC "-//W3C//DTD SVG 20010904//EN"
 "http://www.w3.org/TR/2001/REC-SVG-20010904/DTD/svg10.dtd">
<svg version="1.0" xmlns="http://www.w3.org/2000/svg"
 width="41pt" height="41pt" viewBox="0 0 1280.000000 1217.000000"
 preserveAspectRatio="xMidYMid meet">
<g transform="translate(0.000000,1217.000000) scale(0.100000,-0.100000)"
fill="#000000" stroke="none">
<path d="M5515 10357 c-484 -980 -925 -1872 -980 -1982 l-100 -200 -2197 -325
c-1208 -179 -2201 -329 -2205 -334 -4 -5 49 -63 119 -130 296 -283 3028 -2951
3031 -2961 3 -6 -35 -247 -84 -535 -49 -289 -132 -779 -185 -1090 -158 -935
-217 -1287 -323 -1910 -106 -625 -137 -806 -143 -828 -13 -54 27 -34 1482 730
1844 969 2457 1288 2477 1288 5 0 891 -463 1968 -1030 1077 -566 1960 -1028
1962 -1026 2 1 -17 119 -41 262 -25 142 -66 381 -91 529 -25 149 -55 320 -65
380 -10 61 -37 218 -60 350 -63 371 -108 634 -140 820 -16 94 -52 305 -80 470
-28 165 -64 377 -80 470 -16 94 -52 305 -80 470 -28 165 -62 364 -75 442 -14
78 -25 155 -25 170 0 25 209 233 1585 1573 872 849 1584 1548 1582 1554 -2 6
-17 14 -33 18 -46 13 -4274 639 -4324 642 l-45 1 -80 160 c-44 88 -485 980
-980 1983 -494 1002 -901 1822 -904 1822 -4 0 -402 -802 -886 -1783z"/>
</g>
</svg>
