<?xml version="1.0" encoding="iso-8859-1"?>
<!-- Generator: Adobe Illustrator 19.0.0, SVG Export Plug-In . SVG Version: 6.00 Build 0)  -->
<svg version="1.1" id="Capa_1" xmlns="http://www.w3.org/2000/svg" xmlns:xlink="http://www.w3.org/1999/xlink" x="0px" y="0px"
	 viewBox="0 0 512 512" style="enable-background:new 0 0 512 512;" xml:space="preserve">
<path style="fill:#56DFFF;" d="M423.544,298.609l-81.755-150.994L242.346,0L94.31,219.753
	c-23.275,31.674-35.574,69.228-35.574,108.636c0,101.243,82.367,183.61,183.61,183.61s183.61-82.367,183.61-183.61
	C425.957,318.398,425.145,308.379,423.544,298.609z"/>
<path style="fill:#00CCFF;" d="M242.346,512c101.243,0,183.61-82.367,183.61-183.61c0-9.99-0.812-20.009-2.412-29.779
	L341.79,147.617L242.346,0V512z"/>
<path style="fill:#56DFFF;" d="M435.829,187.8L362.755,79.32L289.68,187.8c-11.406,15.581-17.433,34.043-17.433,53.415
	c0,49.907,40.602,90.508,90.509,90.508c49.906,0,90.508-40.602,90.508-90.508C453.263,221.843,447.235,203.38,435.829,187.8z"/>
<g>
</g>
<g>
</g>
<g>
</g>
<g>
</g>
<g>
</g>
<g>
</g>
<g>
</g>
<g>
</g>
<g>
</g>
<g>
</g>
<g>
</g>
<g>
</g>
<g>
</g>
<g>
</g>
<g>
</g>
</svg>
