<svg xmlns="http://www.w3.org/2000/svg" height="51pt" version="1.1" viewBox="-95 0 511 511.99999" width="51pt">
<g id="surface1">
<path d="M 166.1875 1.769531 C 198.683594 27.519531 279.066406 107.394531 260.316406 256.308594 C 260.316406 256.308594 281.261719 243.8125 299.882812 220.6875 C 304.183594 215.351562 312.816406 217.402344 314.273438 224.097656 C 317.511719 238.988281 321.433594 262.835938 322.082031 293 C 324.046875 384.136719 252.191406 462.351562 161.035156 462.511719 C 72.644531 462.667969 0.5 390.402344 0.5 301.671875 C 0.5 224.785156 37.71875 184.652344 52.050781 118.511719 C 53.230469 113.0625 59.488281 110.453125 64.28125 113.304688 C 75.15625 119.769531 92.351562 131.878906 103.601562 149.085938 C 103.601562 149.085938 149.347656 91.136719 152.929688 7.996094 C 153.21875 1.277344 160.917969 -2.410156 166.1875 1.769531 Z M 166.1875 1.769531 " style=" stroke:none;fill-rule:nonzero;fill:rgb(100%,66.666667%,37.254902%);fill-opacity:1;" />
<path d="M 248.179688 300.902344 C 235.34375 320.167969 219.074219 324.546875 219.074219 324.546875 C 225.660156 245.507812 195.429688 187.507812 182.980469 167.347656 C 181.21875 164.492188 176.84375 165.246094 176.132812 168.527344 C 164.75 221.332031 134.1875 250.65625 134.1875 250.65625 C 124.242188 239.058594 114.789062 234.308594 109.871094 232.472656 C 107.9375 231.753906 105.871094 232.816406 105.152344 234.75 C 92.597656 268.417969 68.871094 294.410156 63.472656 333.113281 C 55.527344 390.0625 96.90625 444.039062 154.269531 448.023438 C 212.128906 452.042969 260.3125 406.292969 260.3125 349.292969 C 260.3125 326.363281 257.265625 310.613281 254.933594 301.925781 C 254.09375 298.789062 249.976562 298.203125 248.179688 300.902344 Z M 248.179688 300.902344 " style=" stroke:none;fill-rule:nonzero;fill:rgb(100%,88.235294%,49.019608%);fill-opacity:1;" />
<path d="M 163.71875 292.125 C 162.527344 289.128906 158.71875 288.304688 156.546875 290.6875 C 143.574219 304.933594 108.710938 346.628906 108.710938 383.34375 C 108.710938 412.40625 132.273438 435.96875 161.339844 435.96875 C 190.402344 435.96875 213.964844 412.40625 213.964844 383.34375 C 213.964844 355.710938 179.988281 333.054688 163.71875 292.125 Z M 163.71875 292.125 " style=" stroke:none;fill-rule:nonzero;fill:rgb(100%,100%,100%);fill-opacity:1;" />
<path d="M 219.074219 512 L 103.601562 512 C 99.046875 512 95.351562 508.308594 95.351562 503.753906 C 95.351562 499.195312 99.046875 495.503906 103.601562 495.503906 L 219.074219 495.503906 C 223.628906 495.503906 227.320312 499.195312 227.320312 503.753906 C 227.320312 508.308594 223.628906 512 219.074219 512 Z M 219.074219 512 " style=" stroke:none;fill-rule:nonzero;fill:rgb(71.372549%,49.803922%,37.254902%);fill-opacity:1;" />
<path d="M 103.601562 512 L 144.839844 512 L 144.839844 495.503906 L 103.601562 495.503906 C 99.046875 495.503906 95.351562 499.195312 95.351562 503.753906 C 95.351562 508.308594 99.046875 512 103.601562 512 Z M 103.601562 512 " style=" stroke:none;fill-rule:nonzero;fill:rgb(62.745098%,43.137255%,31.372549%);fill-opacity:1;" />
<path d="M 159.664062 462.4375 C 142.511719 461.152344 -5 433.644531 45.863281 248.058594 C 64.84375 178.8125 68.167969 115.703125 68.167969 115.703125 C 66.8125 114.84375 65.496094 114.027344 64.28125 113.304688 C 59.488281 110.453125 53.230469 113.0625 52.050781 118.511719 C 37.71875 184.648438 0.5 224.785156 0.5 301.671875 C 0.5 389.9375 71.613281 461.535156 159.664062 462.4375 Z M 159.664062 462.4375 " style=" stroke:none;fill-rule:nonzero;fill:rgb(100%,54.901961%,35.294118%);fill-opacity:1;" />
</g>
</svg>